SplineFontDB: 3.0
FontName: Tofeus
FullName: Tofeus
FamilyName: Tofeus
Weight: Regular
Copyright: Copyright 2011 Barry Schwartz
UComments: "2011-2-4: Created." 
Version: 0.1
ItalicAngle: 0
UnderlinePosition: -100
UnderlineWidth: 50
Ascent: 800
Descent: 200
LayerCount: 3
Layer: 0 0 "Back"  1
Layer: 1 0 "Fore"  0
Layer: 2 0 "backup"  0
NeedsXUIDChange: 1
XUID: [1021 658 797806517 5975031]
OS2Version: 0
OS2_WeightWidthSlopeOnly: 0
OS2_UseTypoMetrics: 1
CreationTime: 1296876006
ModificationTime: 1296986006
OS2TypoAscent: 0
OS2TypoAOffset: 1
OS2TypoDescent: 0
OS2TypoDOffset: 1
OS2TypoLinegap: 0
OS2WinAscent: 0
OS2WinAOffset: 1
OS2WinDescent: 0
OS2WinDOffset: 1
HheadAscent: 0
HheadAOffset: 1
HheadDescent: 0
HheadDOffset: 1
OS2Vendor: 'PfEd'
MarkAttachClasses: 1
DEI: 91125
Encoding: UnicodeBmp
UnicodeInterp: none
NameList: Adobe Glyph List
DisplaySize: -48
AntiAlias: 1
FitToEm: 1
WinInfo: 65472 12 6
BeginChars: 65541 68

StartChar: T
Encoding: 84 84 0
Width: 718
VWidth: 0
Flags: W
HStem: -5 31<209.071 301.755 418.002 513.991> 619 31<93.7848 303.955 416.625 630.866>
VStem: 310 100<30.0124 617.312>
LayerCount: 3
Fore
Refer: 40 116 N 1 0 0 1 0 0 2
Layer: 2
SplineSet
432 28 m 0xd0
 439 25 485 25 495 24 c 0
 508 23 519 23 519 9 c 0
 519 -2 512 -7 500 -7 c 0
 489 -7 408 0 365 0 c 0
 342 0 290 -1 262 -3 c 0
 250 -4 234 -5 226 -5 c 0
 214 -5 207 -2 207 11 c 0
 207 27 219 28 227 28 c 0
 237 28 248 27 259 27 c 0
 286 27 297 30 301 44 c 0
 309 75 310 196 310 284 c 2
 310 332 l 2
 310 397 310 468 309 496 c 0
 308 530 311 606 299 614 c 0
 294 617 289 618 282 618 c 0
 266 619 247 619 229 619 c 0xd0
 189 619 149 618 124 617 c 0
 116 617 107 613 95 603 c 2
 22 538 l 1
 16 540 12 541 10 546 c 1
 52 665 l 2
 53 668 56 670 60 670 c 0xb0
 62 670 64 670 65 669 c 2
 85 658 l 2
 97 651 107 650 113 650 c 2xd0
 359 650 l 2xb0
 437 650 536 649 625 649 c 0
 631 649 633 650 639 654 c 2
 661 667 l 2
 668 671 673 666 674 663 c 0
 683 623 703 555 708 540 c 1
 705 534 696 530 693 534 c 2
 637 597 l 2
 627 608 621 615 584 616 c 0
 548 617 491 619 466 619 c 2
 459 619 l 2
 444 619 435 619 423 615 c 0
 412 612 412 555 411 515 c 0
 410 443 410 372 410 313 c 2
 410 247 l 2
 410 181 410 106 414 61 c 0
 416 37 427 30 432 28 c 0xd0
210 -6 m 1
 209 -2 208 3 208 7 c 0
 208 13 209 19 211 25 c 1
 296 26 303 26 307 61 c 0
 311 105 312 176 312 222 c 2
 312 339 l 2
 312 409 312 482 309 591 c 0
 308 616 296 617 284 617 c 2
 139 617 l 2
 124 617 112 616 103 609 c 0
 76 588 50 562 25 539 c 1
 19 541 12 547 10 551 c 1
 29 601 37 615 52 667 c 0
 52 669 55 670 57 670 c 0
 60 670 64 668 66 667 c 2
 84 657 l 2
 96 651 107 650 113 650 c 2
 625 650 l 2
 631 650 634 651 639 654 c 2
 661 667 l 2
 663 668 664 668 665 668 c 0
 670 668 673 664 674 662 c 0
 688 592 701 563 709 538 c 1
 704 533 699 532 694 531 c 1
 679 550 653 582 633 603 c 0
 621 616 595 617 574 617 c 2
 442 617 l 2
 420 617 414 615 413 595 c 0
 409 535 409 404 409 323 c 2
 409 184 l 2
 409 135 411 84 413 60 c 0
 416 25 432 28 516 25 c 1
 517 22 517 17 517 11 c 0
 517 5 516 0 514 -6 c 1
 484 -4 420 0 395 0 c 2
 335 0 l 2
 302 0 272 -2 210 -6 c 1
432 28 m 0
 439 25 485 25 495 24 c 0
 508 23 519 23 519 9 c 0
 519 -2 512 -7 500 -7 c 0
 489 -7 408 0 365 0 c 0
 342 0 290 -1 262 -3 c 0
 250 -4 234 -5 226 -5 c 0
 214 -5 207 -2 207 11 c 0
 207 27 219 28 227 28 c 0
 237 28 248 27 259 27 c 0
 286 27 297 30 301 44 c 0
 309 75 310 196 310 284 c 2
 310 332 l 2
 310 397 310 468 309 496 c 0
 308 530 311 606 299 614 c 0
 294 617 289 618 282 618 c 0
 266 619 247 619 229 619 c 0
 189 619 149 618 124 617 c 0
 116 617 107 613 95 603 c 2
 22 538 l 1
 16 540 12 541 10 546 c 1
 52 665 l 2
 53 668 56 670 60 670 c 0
 62 670 64 670 65 669 c 2
 85 658 l 2
 97 651 107 650 113 650 c 2
 359 650 l 2
 437 650 536 649 625 649 c 0
 631 649 633 650 639 654 c 2
 662 668 l 2
 663 669 665 669 666 669 c 0
 670 669 672 666 673 663 c 0
 682 623 702 555 707 540 c 1
 704 534 697 530 694 534 c 2
 638 597 l 2
 628 608 621 615 584 616 c 0
 548 617 491 619 466 619 c 2
 459 619 l 2
 444 619 435 619 423 615 c 0
 412 612 412 555 411 515 c 0
 410 443 410 372 410 313 c 2
 410 247 l 2
 410 181 410 106 414 61 c 0
 416 37 427 30 432 28 c 0
EndSplineSet
EndChar

StartChar: s
Encoding: 115 115 1
Width: 184
VWidth: 0
Flags: HW
LayerCount: 3
Fore
SplineSet
42 188 m 4
 42 216 64 238 92 238 c 4
 120 238 142 216 142 188 c 4
 142 160 120 138 92 138 c 4
 64 138 42 160 42 188 c 4
EndSplineSet
EndChar

StartChar: v
Encoding: 118 118 3
Width: 184
VWidth: 0
Flags: HW
LayerCount: 3
Fore
SplineSet
42 188 m 4
 42 216 64 238 92 238 c 4
 120 238 142 216 142 188 c 4
 142 160 120 138 92 138 c 4
 64 138 42 160 42 188 c 4
EndSplineSet
EndChar

StartChar: m
Encoding: 109 109 4
Width: 184
VWidth: 0
Flags: HW
LayerCount: 3
Fore
SplineSet
42 188 m 4
 42 216 64 238 92 238 c 4
 120 238 142 216 142 188 c 4
 142 160 120 138 92 138 c 4
 64 138 42 160 42 188 c 4
EndSplineSet
EndChar

StartChar: I
Encoding: 73 73 15
Width: 296
VWidth: 0
Flags: HW
LayerCount: 3
Fore
Refer: 16 105 N 1 0 0 1 0 0 2
Layer: 2
SplineSet
99 90 m 2
 99 423 l 2
 99 501 96 584 93 595 c 0
 89 612 86 615 38 620 c 0
 30.0430527289 620.828848674 17 620 17 636 c 0
 17 649 25 648 35 648 c 0
 39 648 92 642 134 642 c 2
 153 642 l 2
 186 642 244 644 248 644 c 0
 258 644 266 642 266 634 c 0
 266 621 259 620 245 619 c 0
 221 618 199 613 196 595 c 0
 191 563 190 508 190 445 c 2
 190 148 l 2
 190 103 191 64 199 47 c 0
 203.965820312 36.4482421875 208 20 252 17 c 0
 260.043583082 16.4515738808 274 16 274 3 c 0
 274 -6 262 -6 252 -6 c 0
 248 -6 198 2 155 2 c 2
 136 2 l 2
 115 2 60 -6 46 -6 c 0
 38 -6 25 -5 25 5 c 0
 25 17 33 19 46 20 c 0
 74 22 86.0433931172 26.5976345137 96 49 c 0
 100 58 99 69 99 90 c 2
190 313 m 2
 190 190 l 2
 190 142 190 93 194 61 c 0
 199 18 217 27 257 25 c 0
 270 24 274 22 274 8 c 0
 274 -1 268 -4 259 -4 c 0
 242 -4 204 0 156 0 c 2
 134 0 l 2
 101 0 51 -3 42 -3 c 0
 30 -3 26 0 26 13 c 0
 26 22 33 26 41 26 c 2
 75 26 l 2
 84 26 97 35 97 59 c 0
 98 114 99 132 99 185 c 2
 99 385 l 2
 99 463 99 554 96 581 c 0
 93 612 78 617 35 617 c 0
 22 617 16 620 16 634 c 0
 16 645 26 647 38 647 c 0
 49 647 91 643 134 643 c 2
 156 643 l 2
 189 643 240 646 249 646 c 0
 261 646 265 643 265 630 c 0
 265 621 258 617 250 617 c 0
 234 617 222 617 215 616 c 0
 208 615 197 607 194 583 c 0
 193 575 190 354 190 313 c 2
EndSplineSet
EndChar

StartChar: i
Encoding: 105 105 16
Width: 184
VWidth: 0
Flags: HW
LayerCount: 3
Fore
SplineSet
42 188 m 4
 42 216 64 238 92 238 c 4
 120 238 142 216 142 188 c 4
 142 160 120 138 92 138 c 4
 64 138 42 160 42 188 c 4
EndSplineSet
EndChar

StartChar: H
Encoding: 72 72 19
Width: 766
VWidth: 0
Flags: HW
LayerCount: 3
Fore
Refer: 31 104 N 1 0 0 1 0 0 2
Layer: 2
SplineSet
89 234 m 2
 91 454 l 2
 91 521 89 577 87 587 c 0
 83 612 80 623 30 628 c 0
 22 629 12 633 12 643 c 0
 12 652 20 654 27 654 c 0
 40 654 82 649 132 649 c 2
 151 649 l 2
 188 649 278 657 286 657 c 0
 294 657 301 655 301 644 c 0
 301 634 280 633 266 632 c 0
 227 629 193 624 192 593 c 0
 189 492 188 430 188 358 c 0
 188 344 204 342 212 342 c 2
 548 342 l 2
 558 342 569 342 569 361 c 2
 569 403 l 2
 569 468 568 570 562 593 c 0
 557 610 550 627 484 629 c 0
 476 629 469 632 469 639 c 0
 469 652 479 653 485 653 c 0
 489 653 562 646 604 646 c 2
 623 646 l 2
 656 646 728 650 732 650 c 0
 742 650 746 646 746 640 c 0
 746 627 734 629 720 626 c 0
 696 621 674 622 668 597 c 0
 660 566 660 536 660 425 c 2
 659 101 l 2
 659 79 659 63 662 53 c 0
 666 37 672 22 719 20 c 0
 727 20 741 18 741 6 c 0
 741 -5 731 -6 722 -6 c 0
 713 -6 645 0 625 0 c 2
 606 0 l 2
 564 0 490 -7 486 -7 c 0
 476 -7 464 -6 464 7 c 0
 464 20 472 23 485 24 c 0
 532 28 542 23 559 48 c 0
 565 57 566 102 566 234 c 2
 566 296 l 2
 566 310 554 310 544 310 c 2
 205 310 l 2
 197 310 188 308 188 299 c 2
 188 148 l 2
 188 103 189 57 196 42 c 0
 201 31 232 25 282 23 c 0
 290 23 304 22 304 6 c 0
 304 -7 292 -8 282 -8 c 0
 278 -8 196 0 153 0 c 2
 134 0 l 2
 108 0 30 -6 26 -6 c 0
 16 -6 3 -6 3 7 c 0
 3 19 11 20 28 22 c 0
 73 27 74 33 81 60 c 0
 83 68 88 101 89 234 c 2
EndSplineSet
EndChar

StartChar: d
Encoding: 100 100 20
Width: 482
VWidth: 0
Flags: HW
LayerCount: 3
Fore
SplineSet
395 156 m 0
 395 97 397 82 399 72 c 0
 402 55 409 55 455 40 c 1
 456 38 457 35 457 33 c 0
 457 29 456 25 454 23 c 1
 409 15 389 10 342 -7 c 1
 334 -7 329 -2 329 4 c 2
 329 39 l 1
 315 28 260 -9 203 -9 c 0
 157 -9 106 17 82 42 c 0
 41 85 34 130 34 175 c 0
 34 341 152 404 242 404 c 0
 293 404 323 395 323 395 c 1
 323 485 l 2
 323 512 322 583 314 594 c 0
 311 598 282 608 274 611 c 0
 258 618 255 618 255 627 c 0
 255 635 263 638 273 639 c 0
 304 643 360 656 387 663 c 1
 392 662 399 654 399 652 c 0
 399 530 395 490 395 156 c 0
230 377 m 0
 144 377 107 307 107 226 c 0
 107 178 117 144 131 113 c 0
 155 58 196 31 244 31 c 0
 285 31 321 61 322 100 c 0
 323 133 324 164 324 195 c 2
 324 224 l 2
 324 300 317 318 314 328 c 0
 307 351 274 377 230 377 c 0
EndSplineSet
Layer: 2
SplineSet
375 154 m 4
 375 95 377 80 379 70 c 4
 382 53 389 53 435 38 c 5
 436 36 437 33 437 31 c 4
 437 27 436 23 434 21 c 5
 389 13 369 8 322 -9 c 5
 314 -9 309 -4 309 2 c 6
 309 37 l 5
 295 26 240 -11 183 -11 c 4
 137 -11 86 15 62 40 c 4
 21 83 14 128 14 173 c 4
 14 339 132 401 222 401 c 4
 273 401 303 396 303 396 c 5
 303 483 l 6
 303 510 302 581 294 592 c 4
 291 596 262 606 254 609 c 4
 238 616 235 616 235 625 c 4
 235 633 243 636 253 637 c 4
 284 641 340 654 367 661 c 5
 372 660 379 652 379 650 c 4
 379 528 375 488 375 154 c 4
210 374 m 4
 124 374 87 305 87 224 c 4
 87 176 97 142 111 111 c 4
 135 56 176 29 224 29 c 4
 265 29 301 59 302 98 c 4
 303 131 304 162 304 193 c 6
 304 222 l 6
 304 298 297 316 294 326 c 4
 287 349 254 374 210 374 c 4
EndSplineSet
EndChar

StartChar: a
Encoding: 97 97 21
Width: 404
VWidth: 0
Flags: HW
LayerCount: 3
Fore
SplineSet
121 87 m 0
 121 65 129 27 168 27 c 0
 185 27 206 37 224 47 c 8
 241 56 248 74 248 91 c 2
 249 176 l 1
 228 174 121 143 121 87 c 0
181 364 m 0
 160 364 139 359 121 348 c 0
 113 343 110 331 110 323 c 0
 110 311 114 307 114 287 c 0
 114 265 91 249 74 249 c 0
 54 249 38 268 38 289 c 0
 38 314 50 330 73 345 c 0
 111 370 139 385 188 401 c 0
 199 405 215 407 227 407 c 0
 254 407 305 386 314 353 c 0
 317 343 321 318 321 300 c 0
 321 204 319 185 319 104 c 0
 319 79 322 47 350 47 c 0
 358 47 364 51 371 63 c 0
 372 65 376 65 377 65 c 0
 382 65 385 58 385 53 c 0
 385 14 325 -8 305 -8 c 0
 264 -8 249 29 244 29 c 0
 239 29 190 -12 134 -12 c 0
 101 -12 44 5 44 72 c 0
 44 121 107 153 158 174 c 0
 207 194 235 201 250 208 c 1
 250 291 l 2
 250 323 230 364 181 364 c 0
EndSplineSet
Layer: 2
SplineSet
121 92 m 4
 121 70 129 32 168 32 c 4
 185 32 206 42 224 52 c 12
 241 61 248 79 248 96 c 6
 249 181 l 5
 228 179 121 148 121 92 c 4
181 369 m 4
 160 369 139 364 121 353 c 4
 113 348 111 338 111 328 c 4
 111 316 114 303 114 292 c 4
 114 270 91 254 74 254 c 4
 54 254 38 273 38 294 c 4
 38 319 50 335 73 350 c 4
 111 375 139 390 188 406 c 4
 199 410 215 412 227 412 c 4
 254 412 305 391 314 358 c 4
 317 348 321 323 321 305 c 4
 321 209 319 190 319 109 c 4
 319 84 322 52 350 52 c 4
 358 52 364 56 371 68 c 4
 372 70 376 70 377 70 c 4
 382 70 385 63 385 58 c 4
 385 19 325 -3 305 -3 c 4
 264 -3 249 34 244 34 c 4
 239 34 190 -7 134 -7 c 4
 101 -7 44 10 44 77 c 4
 44 126 107 158 158 179 c 4
 207 199 235 206 250 213 c 5
 250 296 l 6
 250 328 230 369 181 369 c 4
EndSplineSet
EndChar

StartChar: b
Encoding: 98 98 22
Width: 465
VWidth: 0
Flags: HW
LayerCount: 3
Fore
SplineSet
247 404 m 0
 373 404 438 309 438 197 c 0
 438 81 370 -16 246 -16 c 0
 173 -16 131 15 122 15 c 0
 107 15 86 -1 78 -1 c 0
 71 -1 70 5 70 11 c 16
 70 24 71 42 71 54 c 0
 71 165 75 234 75 354 c 2
 75 504 l 2
 75 543 75 584 60 588 c 2
 37 594 l 2
 21 598 18 599 18 608 c 0
 18 616 35 620 43 622 c 0
 76 632 124 652 137 660 c 0
 138 661 139 661 140 661 c 0
 145 661 152 655 152 653 c 0
 152 616 149 524 149 432 c 2
 149 377 l 1
 149 377 197 404 247 404 c 0
352 208 m 0
 352 282 334 377 242 377 c 0
 200 377 166 350 155 326 c 0
 150 316 149 287 149 279 c 2
 149 175 l 2
 149 94 163 59 193 30 c 0
 214 10 238 10 250 10 c 0
 326 10 352 121 352 208 c 0
EndSplineSet
EndChar

StartChar: H.NOTUSED
Encoding: 65536 -1 23
Width: 766
VWidth: 0
Flags: HW
LayerCount: 3
Fore
SplineSet
89 234 m 0
 89.7516049061 314.045922501 91 394 91 474 c 0
 91 529 89 573 87 582 c 0
 83 607 86 618 15 626 c 1
 11 631 13 647 16 651 c 1
 29 651 82 646 132 646 c 2
 151 646 l 2
 188 646 289 652 297 652 c 1
 298 647 300 632 295 628 c 1
 224 620 193 617 192 586 c 0
 189 485 188 423 188 351 c 0
 188 340 194 340 202 340 c 2
 548 340 l 2
 558 340 569 341 569 354 c 2
 569 401 l 2
 569 466 567 568 561 591 c 0
 556 609 559 622 472 629 c 1
 470 635 471 647 473 652 c 1
 508 648 590 646 604 646 c 2
 623 646 l 2
 653 646 716 650 744 651 c 1
 744 645 744 634 742 627 c 1
 684 622 669 614 667 595 c 0
 664 564 660 534 660 423 c 2
 660 86 l 2
 660 27 666 28 739 21 c 1
 740 10 740 4 736 -6 c 1
 727 -6 643 0 623 0 c 2
 596 0 l 2
 540 0 497 -5 468 -6 c 1
 465 1 466 14 468 23 c 1
 531 27 546 24 559 48 c 0
 564 58 566 100 566 232 c 2
 566 299 l 2
 566 308 554 308 544 308 c 2
 205 308 l 2
 197 308 188 308 188 302 c 2
 188 148 l 2
 188 103 189 57 196 42 c 0
 201 31 236 26 301 22 c 1
 303 13 302 0 300 -7 c 1
 280 -7 166 0 143 0 c 2
 124 0 l 2
 98 0 10 -7 6 -7 c 1
 5 -3 4 4 4 11 c 0
 4 14 4 17 5 19 c 1
 74 26 74 33 81 60 c 0
 83 68 88 101 89 234 c 0
EndSplineSet
Layer: 2
SplineSet
89 234 m 6
 91 454 l 6
 91 521 89 577 87 587 c 4
 83 612 80 623 30 628 c 4
 22 629 12 633 12 643 c 4
 12 652 20 654 27 654 c 4
 40 654 82 649 132 649 c 6
 151 649 l 6
 188 649 278 657 286 657 c 4
 294 657 301 655 301 644 c 4
 301 634 280 633 266 632 c 4
 227 629 193 624 192 593 c 4
 189 492 188 430 188 358 c 4
 188 344 204 342 212 342 c 6
 548 342 l 6
 558 342 569 342 569 361 c 6
 569 403 l 6
 569 468 568 570 562 593 c 4
 557 610 550 627 484 629 c 4
 476 629 469 632 469 639 c 4
 469 652 479 653 485 653 c 4
 489 653 562 646 604 646 c 6
 623 646 l 6
 656 646 728 650 732 650 c 4
 742 650 746 646 746 640 c 4
 746 627 734 629 720 626 c 4
 696 621 674 622 668 597 c 4
 660 566 660 536 660 425 c 6
 659 101 l 6
 659 79 659 63 662 53 c 4
 666 37 672 22 719 20 c 4
 727 20 741 18 741 6 c 4
 741 -5 731 -6 722 -6 c 4
 713 -6 645 0 625 0 c 6
 606 0 l 6
 564 0 490 -7 486 -7 c 4
 476 -7 464 -6 464 7 c 4
 464 20 472 23 485 24 c 4
 532 28 542 23 559 48 c 4
 565 57 566 102 566 234 c 6
 566 296 l 6
 566 310 554 310 544 310 c 6
 205 310 l 6
 197 310 188 308 188 299 c 6
 188 148 l 6
 188 103 189 57 196 42 c 4
 201 31 232 25 282 23 c 4
 290 23 304 22 304 6 c 4
 304 -7 292 -8 282 -8 c 4
 278 -8 196 0 153 0 c 6
 134 0 l 6
 108 0 30 -6 26 -6 c 4
 16 -6 3 -6 3 7 c 4
 3 19 11 20 28 22 c 4
 73 27 74 33 81 60 c 4
 83 68 88 101 89 234 c 6
EndSplineSet
EndChar

StartChar: I.NOTUSED
Encoding: 65537 -1 24
Width: 296
VWidth: 0
Flags: HW
LayerCount: 3
Fore
SplineSet
99 71 m 2
 99 490 l 2
 99 542 98 588 88 610 c 0
 83 621 73 622 18 623 c 1
 18 625 17 630 17 633 c 0
 17 639 18 643 20 649 c 1
 24 649 95 646 134 646 c 2
 153 646 l 2
 187 646 240 648 264 649 c 1
 265 643 266 631 263 623 c 1
 204 621 202 616 198 600 c 0
 194 584 190 507 190 444 c 2
 190 108 l 2
 190 17 195 24 272 18 c 1
 273 14 273 10 273 5 c 0
 273 2 273 -2 272 -6 c 1
 268 -6 198 0 155 0 c 2
 136 0 l 2
 115 0 49 -4 29 -6 c 1
 27 0 28 14 29 20 c 1
 85 25 99 31 99 71 c 2
EndSplineSet
Layer: 2
SplineSet
99 90 m 2
 99 423 l 2
 99 501 96 584 93 595 c 0
 89 612 86 615 38 620 c 0
 30.0430527289 620.828848674 17 620 17 636 c 0
 17 649 25 648 35 648 c 0
 39 648 92 642 134 642 c 2
 153 642 l 2
 186 642 244 644 248 644 c 0
 258 644 266 642 266 634 c 0
 266 621 259 620 245 619 c 0
 221 618 199 613 196 595 c 0
 191 563 190 508 190 445 c 2
 190 148 l 2
 190 103 191 64 199 47 c 0
 203.965820312 36.4482421875 208 20 252 17 c 0
 260.043583082 16.4515738808 274 16 274 3 c 0
 274 -6 262 -6 252 -6 c 0
 248 -6 198 2 155 2 c 2
 136 2 l 2
 115 2 60 -6 46 -6 c 0
 38 -6 25 -5 25 5 c 0
 25 17 33 19 46 20 c 0
 74 22 86.0433931172 26.5976345137 96 49 c 0
 100 58 99 69 99 90 c 2
190 313 m 2
 190 190 l 2
 190 142 190 93 194 61 c 0
 199 18 217 27 257 25 c 0
 270 24 274 22 274 8 c 0
 274 -1 268 -4 259 -4 c 0
 242 -4 204 0 156 0 c 2
 134 0 l 2
 101 0 51 -3 42 -3 c 0
 30 -3 26 0 26 13 c 0
 26 22 33 26 41 26 c 2
 75 26 l 2
 84 26 97 35 97 59 c 0
 98 114 99 132 99 185 c 2
 99 385 l 2
 99 463 99 554 96 581 c 0
 93 612 78 617 35 617 c 0
 22 617 16 620 16 634 c 0
 16 645 26 647 38 647 c 0
 49 647 91 643 134 643 c 2
 156 643 l 2
 189 643 240 646 249 646 c 0
 261 646 265 643 265 630 c 0
 265 621 258 617 250 617 c 0
 234 617 222 617 215 616 c 0
 208 615 197 607 194 583 c 0
 193 575 190 354 190 313 c 2
EndSplineSet
EndChar

StartChar: T.NOTUSED
Encoding: 65538 -1 25
Width: 718
VWidth: 0
Flags: HW
HStem: -5 31<209.071 301.755 418.002 513.991> 619 31<93.7848 303.955 416.625 630.866>
VStem: 310 100<30.0124 617.312>
LayerCount: 3
Fore
SplineSet
418 43 m 0
 424 28 436 30 494 27 c 0
 502 27 514 24 514 10 c 0
 514 -3 504 -5 494 -5 c 0
 490 -5 419 0 385 0 c 2
 332 0 l 2
 298 0 233 -5 229 -5 c 0
 219 -5 209 -4 209 9 c 0
 209 25 220 27 228 27 c 4
 277 28 297 27 302 44 c 0
 308 63 310 116 310 177 c 2
 310 332 l 2
 310 397 310 466 309 494 c 0
 308 528 311 600 299 610 c 0
 289 618 267 619 247 619 c 2
 204 619 l 2
 173 619 109 618 93 603 c 2
 22 538 l 1
 16 536 10 541 10 546 c 1
 52 665 l 2
 53 668 56 670 60 670 c 0
 62 670 64 670 65 669 c 2
 85 658 l 2
 97 651 107 650 113 650 c 2
 625 650 l 2
 631 650 633 651 639 655 c 2
 661 668 l 2
 663 669 664 669 666 669 c 0
 670 669 673 666 674 664 c 0
 683 624 703 555 708 540 c 1
 708 536 700 532 697 532 c 0
 695 532 694 533 693 534 c 2
 634 601 l 2
 619.016813049 618.014805521 570 619 533 619 c 2
 444 619 l 2
 436 619 429 618 423 613 c 0
 411 602 412 553 411 513 c 0
 410 441 410 372 410 313 c 2
 410 151 l 2
 410 106 411 61 418 43 c 0
EndSplineSet
Layer: 2
SplineSet
432 28 m 4xd0
 439 25 485 25 495 24 c 4
 508 23 519 23 519 9 c 4
 519 -2 512 -7 500 -7 c 4
 489 -7 408 0 365 0 c 4
 342 0 290 -1 262 -3 c 4
 250 -4 234 -5 226 -5 c 4
 214 -5 207 -2 207 11 c 4
 207 27 219 28 227 28 c 4
 237 28 248 27 259 27 c 4
 286 27 297 30 301 44 c 4
 309 75 310 196 310 284 c 6
 310 332 l 6
 310 397 310 468 309 496 c 4
 308 530 311 606 299 614 c 4
 294 617 289 618 282 618 c 4
 266 619 247 619 229 619 c 4xd0
 189 619 149 618 124 617 c 4
 116 617 107 613 95 603 c 6
 22 538 l 5
 16 540 12 541 10 546 c 5
 52 665 l 6
 53 668 56 670 60 670 c 4xb0
 62 670 64 670 65 669 c 6
 85 658 l 6
 97 651 107 650 113 650 c 6xd0
 359 650 l 6xb0
 437 650 536 649 625 649 c 4
 631 649 633 650 639 654 c 6
 661 667 l 6
 668 671 673 666 674 663 c 4
 683 623 703 555 708 540 c 5
 705 534 696 530 693 534 c 6
 637 597 l 6
 627 608 621 615 584 616 c 4
 548 617 491 619 466 619 c 6
 459 619 l 6
 444 619 435 619 423 615 c 4
 412 612 412 555 411 515 c 4
 410 443 410 372 410 313 c 6
 410 247 l 6
 410 181 410 106 414 61 c 4
 416 37 427 30 432 28 c 4xd0
210 -6 m 5
 209 -2 208 3 208 7 c 4
 208 13 209 19 211 25 c 5
 296 26 303 26 307 61 c 4
 311 105 312 176 312 222 c 6
 312 339 l 6
 312 409 312 482 309 591 c 4
 308 616 296 617 284 617 c 6
 139 617 l 6
 124 617 112 616 103 609 c 4
 76 588 50 562 25 539 c 5
 19 541 12 547 10 551 c 5
 29 601 37 615 52 667 c 4
 52 669 55 670 57 670 c 4
 60 670 64 668 66 667 c 6
 84 657 l 6
 96 651 107 650 113 650 c 6
 625 650 l 6
 631 650 634 651 639 654 c 6
 661 667 l 6
 663 668 664 668 665 668 c 4
 670 668 673 664 674 662 c 4
 688 592 701 563 709 538 c 5
 704 533 699 532 694 531 c 5
 679 550 653 582 633 603 c 4
 621 616 595 617 574 617 c 6
 442 617 l 6
 420 617 414 615 413 595 c 4
 409 535 409 404 409 323 c 6
 409 184 l 6
 409 135 411 84 413 60 c 4
 416 25 432 28 516 25 c 5
 517 22 517 17 517 11 c 4
 517 5 516 0 514 -6 c 5
 484 -4 420 0 395 0 c 6
 335 0 l 6
 302 0 272 -2 210 -6 c 5
432 28 m 4
 439 25 485 25 495 24 c 4
 508 23 519 23 519 9 c 4
 519 -2 512 -7 500 -7 c 4
 489 -7 408 0 365 0 c 4
 342 0 290 -1 262 -3 c 4
 250 -4 234 -5 226 -5 c 4
 214 -5 207 -2 207 11 c 4
 207 27 219 28 227 28 c 4
 237 28 248 27 259 27 c 4
 286 27 297 30 301 44 c 4
 309 75 310 196 310 284 c 6
 310 332 l 6
 310 397 310 468 309 496 c 4
 308 530 311 606 299 614 c 4
 294 617 289 618 282 618 c 4
 266 619 247 619 229 619 c 4
 189 619 149 618 124 617 c 4
 116 617 107 613 95 603 c 6
 22 538 l 5
 16 540 12 541 10 546 c 5
 52 665 l 6
 53 668 56 670 60 670 c 4
 62 670 64 670 65 669 c 6
 85 658 l 6
 97 651 107 650 113 650 c 6
 359 650 l 6
 437 650 536 649 625 649 c 4
 631 649 633 650 639 654 c 6
 662 668 l 6
 663 669 665 669 666 669 c 4
 670 669 672 666 673 663 c 4
 682 623 702 555 707 540 c 5
 704 534 697 530 694 534 c 6
 638 597 l 6
 628 608 621 615 584 616 c 4
 548 617 491 619 466 619 c 6
 459 619 l 6
 444 619 435 619 423 615 c 4
 412 612 412 555 411 515 c 4
 410 443 410 372 410 313 c 6
 410 247 l 6
 410 181 410 106 414 61 c 4
 416 37 427 30 432 28 c 4
EndSplineSet
EndChar

StartChar: U.NOTUSED
Encoding: 65539 -1 26
Width: 742
VWidth: 0
Flags: W
HStem: -19 58<295.373 481.874> 626 24<20.3139 79.9722 228.859 302.077 481.076 560.151> 635 17<669.306 710>
VStem: 103 95<162.675 607.533> 601 26<216.558 582.998>
LayerCount: 3
Fore
SplineSet
385 39 m 0xd8
 514 39 572 109 594 221 c 0
 601 255 601 301 601 348 c 2
 601 467 l 2
 601 495 601 545 590 579 c 8
 576 622 539 618 481 621 c 1xd8
 481 634 480 639 482 648 c 1
 514 647 532 646 580 646 c 2
 611 646 l 2
 628 646 684 649 710 651 c 1
 710 649 711 647 711 643 c 0
 711 639 710 629 710 627 c 1xb8
 654 624 635 609 630 567 c 0
 627 539 627 485 627 408 c 0
 627 235 625 168 571 78 c 0
 532 13 456 -19 371 -19 c 0
 213 -19 112 54 104 277 c 0
 103 309 103 339 103 367 c 2
 103 493 l 2
 103 525 101 571 98 582 c 0
 89 620 74 619 20 627 c 1
 20 634 l 2
 20 640 21 646 22 652 c 1
 47 650 109 646 141 646 c 2
 169 646 l 2
 210 646 288 652 301 652 c 1
 303 644 303 636 301 628 c 1
 252 625 200 626 199 543 c 0
 198 497 198 452 198 407 c 2
 198 366 l 2
 198 182 220 39 385 39 c 0xd8
EndSplineSet
EndChar

StartChar: c
Encoding: 99 99 27
Width: 402
VWidth: 0
Flags: HW
LayerCount: 3
Fore
SplineSet
384 320 m 0
 384 303 368 279 345 279 c 0
 303 279 294 330 271 361 c 0
 262 373 251 377 234 377 c 0
 199 377 155 348 132 310 c 0
 114 280 104 234 104 196 c 0
 104 109 175 37 258 37 c 0
 302 37 344 48 371 74 c 0
 375 78 385 74 385 67 c 0
 385 66 385 64 384 63 c 0
 354 16 287 -15 222 -15 c 0
 109 -15 26 76 26 186 c 0
 26 318 125 402 241 402 c 0
 260 402 384 385 384 320 c 0
EndSplineSet
EndChar

StartChar: e
Encoding: 101 101 28
Width: 409
VWidth: 0
Flags: HW
HStem: -13 51<179.987 311.812> 251 21<104 298.582> 379 25<166.837 260.034>
VStem: 25 71<120.416 272.015> 304 75<257 332.988>
LayerCount: 3
Fore
SplineSet
97 213 m 0
 97 121 152 39 263 39 c 0
 318 39 347 63 367 100 c 0
 369 103 370 106 374 106 c 0
 378 106 385 103 385 98 c 0
 385 96 383 93 382 89 c 0
 360 23 287 -13 214 -13 c 0
 67 -13 25 122 25 191 c 0
 25 317 110 404 222 404 c 0
 305 404 379 342 379 262 c 0
 379 252 374 251 360 251 c 2
 101 251 l 1
 101 251 97 236 97 213 c 0
216 379 m 0
 149 379 114 323 105 272 c 1
 282 272 l 2
 295 272 304 287 304 302 c 0
 304 346 257 379 216 379 c 0
EndSplineSet
EndChar

StartChar: f
Encoding: 102 102 29
Width: 295
VWidth: 0
Flags: HW
HStem: -3 23<180.064 234.967> -1 33<22.4528 87.4565> 356 38<167.607 276.85> 643 41<216.111 327>
VStem: 95 71<32.5654 354>
LayerCount: 3
Fore
SplineSet
309 684 m 0x78
 345 684 393 672 393 633 c 0
 393 613 382 590 350 590 c 0
 316 590 301 621 268 637 c 16
 260 641 255 643 246 643 c 0
 201 643 167 575 167 455 c 0
 167 437 167 410 169 394 c 1
 270 394 l 2
 275 394 277 387 277 378 c 0
 277 369 273 356 267 356 c 2
 166 356 l 1
 163 103 l 2
 163 83 163 65 168 51 c 0
 178 22 194 24 224 20 c 0
 234 19 235 15 235 7 c 0
 235 2 230 -3 224 -3 c 0xb8
 211 -3 160 2 138 2 c 2
 108 2 l 2
 81 2 46 -1 40 -1 c 0
 27 -1 20 0 20 10 c 0
 20 26 65 21 77 32 c 0
 90 44 91 60 92 84 c 0
 94 153 95 203 95 269 c 0
 95 289 93 354 93 354 c 1
 50 354 l 2
 42 354 35 357 35 363 c 0
 35 375 66 381 79 394 c 0
 90 405 92 420 95 435 c 0
 122 585 169 684 309 684 c 0x78
EndSplineSet
EndChar

StartChar: g
Encoding: 103 103 30
Width: 458
VWidth: 0
Flags: HW
HStem: -292 55<122.453 274.781> -68 65<112.321 317.265> 90 18.9687<175.024 245.953> 357 39<342.309 406.389> 371 24<173.387 253.971>
VStem: 28 56<-201.955 -131.239> 48 68<156.369 312.179> 48 57<-26 54.7854> 304 70<158.13 321.896> 362 48<-179.944 -101.25>
LayerCount: 3
Fore
SplineSet
132 -68 m 1xe440
 87 -112 84 -135 84 -156 c 0
 84 -211 152 -237 210 -237 c 0
 279 -237 362 -203 362 -140 c 0
 362 -98 311 -84 272 -79 c 0
 218 -72 184 -70 132 -68 c 1xe440
135 102 m 1
 116 88 105 62 105 36 c 0xf180
 105 7 120 -2 142 -3 c 0
 270 -6 277 -1 326 -11 c 0
 380 -22 410 -57 410 -111 c 0
 410 -185 327 -292 156 -292 c 0
 96 -292 28 -264 28 -195 c 0xf440
 28 -147 64 -107 108 -67 c 1
 69 -62 48 -42 48 -10 c 8xf1
 48 43 84 74 118 107 c 1
 68 141 48 188 48 238 c 0
 48 330 134 395 216 395 c 0xea
 245 395 282 386 316 362 c 1
 330 368 367 396 399 396 c 0
 421 396 448 386 448 359 c 0
 448 347 441 334 425 334 c 0
 399 334 378 357 361 357 c 0
 352 357 347 354 336 346 c 1
 366 310 374 266 374 240 c 0xf280
 374 128 286 90 219 90 c 0
 187 90 151 97 135 102 c 1
304 249 m 0
 304 306 272 371 216 371 c 0
 151 371 116 308 116 245 c 0xea80
 116 216 120 189 129 167 c 0
 146.076809174 127.823790719 182.541477716 108.968713737 213.82327018 108.968713737 c 0
 242.452598705 108.968713737 276.333914055 131.897394023 292 174 c 0
 301 197 304 224 304 249 c 0
EndSplineSet
EndChar

StartChar: h
Encoding: 104 104 31
Width: 460
VWidth: 0
Flags: HWO
HStem: -4 25<277.666 316.782> 2 27<398.633 438.859> 356 42<177.771 285.522>
VStem: 68 65<22.5944 330.289 354 596.561> 317 63<129.365 322.927> 320 67<29.9406 280.728>
LayerCount: 3
Fore
SplineSet
317 224 m 0xb8
 313 309 304 356 209 356 c 0
 186 356 157 345 146 331 c 0
 135 316 133 290 133 260 c 2
 133 224 l 10
 133 151 134 80 142 36 c 0
 146 12 191 24 191 9 c 0
 191 4 186 -2 179 -2 c 0
 154 -2 126 2 104 2 c 0
 76 2 43 -7 36 -7 c 0
 26 -7 21 -6 21 3 c 0
 21 22 61 9 63 40 c 0
 66 83 67 119 67 153 c 0
 67 226 68 296 68 365 c 0
 68 434 66 505 60 574 c 0
 59 584 57 596 30 609 c 2
 17 615 l 2
 14 616 14 619 14 622 c 0
 14 626 15 629 17 630 c 0
 68 645 86 652 119 667 c 1
 127 666 130 661 133 657 c 1
 132 644 129 575 129 501 c 0
 129 458 132 388 132 354 c 1
 151 366 208 398 270 398 c 0
 337 398 380 372 380 282 c 0x78
 380 256 387 156 387 128 c 0
 387 109 389 88 392 66 c 8
 394 50 398 39 410 29 c 0
 420 20 440 22 440 12 c 0
 440 4 433 2 420 2 c 0x74
 406 2 377 4 361 4 c 0
 322 4 314 -4 293 -4 c 0
 279 -4 277 0 277 6 c 0
 277 14 292 16 303 21 c 0
 319 28 320 40 320 54 c 18
 320 73 l 2xb4
 320 117 319 191 317 224 c 0xb8
EndSplineSet
EndChar

StartChar: j
Encoding: 106 106 32
Width: 184
VWidth: 0
Flags: HW
LayerCount: 3
Fore
SplineSet
42 188 m 4
 42 216 64 238 92 238 c 4
 120 238 142 216 142 188 c 4
 142 160 120 138 92 138 c 4
 64 138 42 160 42 188 c 4
EndSplineSet
EndChar

StartChar: k
Encoding: 107 107 33
Width: 184
VWidth: 0
Flags: HW
LayerCount: 3
Fore
SplineSet
42 188 m 4
 42 216 64 238 92 238 c 4
 120 238 142 216 142 188 c 4
 142 160 120 138 92 138 c 4
 64 138 42 160 42 188 c 4
EndSplineSet
EndChar

StartChar: l
Encoding: 108 108 34
Width: 184
VWidth: 0
Flags: HW
LayerCount: 3
Fore
SplineSet
42 188 m 4
 42 216 64 238 92 238 c 4
 120 238 142 216 142 188 c 4
 142 160 120 138 92 138 c 4
 64 138 42 160 42 188 c 4
EndSplineSet
EndChar

StartChar: n
Encoding: 110 110 35
Width: 184
VWidth: 0
Flags: HW
LayerCount: 3
Fore
SplineSet
42 188 m 4
 42 216 64 238 92 238 c 4
 120 238 142 216 142 188 c 4
 142 160 120 138 92 138 c 4
 64 138 42 160 42 188 c 4
EndSplineSet
EndChar

StartChar: o
Encoding: 111 111 36
Width: 184
VWidth: 0
Flags: HW
LayerCount: 3
Fore
SplineSet
42 188 m 4
 42 216 64 238 92 238 c 4
 120 238 142 216 142 188 c 4
 142 160 120 138 92 138 c 4
 64 138 42 160 42 188 c 4
EndSplineSet
EndChar

StartChar: p
Encoding: 112 112 37
Width: 184
VWidth: 0
Flags: HW
LayerCount: 3
Fore
SplineSet
42 188 m 4
 42 216 64 238 92 238 c 4
 120 238 142 216 142 188 c 4
 142 160 120 138 92 138 c 4
 64 138 42 160 42 188 c 4
EndSplineSet
EndChar

StartChar: q
Encoding: 113 113 38
Width: 184
VWidth: 0
Flags: HW
LayerCount: 3
Fore
SplineSet
42 188 m 4
 42 216 64 238 92 238 c 4
 120 238 142 216 142 188 c 4
 142 160 120 138 92 138 c 4
 64 138 42 160 42 188 c 4
EndSplineSet
EndChar

StartChar: r
Encoding: 114 114 39
Width: 184
VWidth: 0
Flags: HW
LayerCount: 3
Fore
SplineSet
42 188 m 4
 42 216 64 238 92 238 c 4
 120 238 142 216 142 188 c 4
 142 160 120 138 92 138 c 4
 64 138 42 160 42 188 c 4
EndSplineSet
EndChar

StartChar: t
Encoding: 116 116 40
Width: 184
VWidth: 0
Flags: HW
LayerCount: 3
Fore
SplineSet
42 188 m 4
 42 216 64 238 92 238 c 4
 120 238 142 216 142 188 c 4
 142 160 120 138 92 138 c 4
 64 138 42 160 42 188 c 4
EndSplineSet
EndChar

StartChar: u
Encoding: 117 117 41
Width: 184
VWidth: 0
Flags: HW
LayerCount: 3
Fore
SplineSet
42 188 m 4
 42 216 64 238 92 238 c 4
 120 238 142 216 142 188 c 4
 142 160 120 138 92 138 c 4
 64 138 42 160 42 188 c 4
EndSplineSet
EndChar

StartChar: w
Encoding: 119 119 42
Width: 184
VWidth: 0
Flags: HW
LayerCount: 3
Fore
SplineSet
42 188 m 4
 42 216 64 238 92 238 c 4
 120 238 142 216 142 188 c 4
 142 160 120 138 92 138 c 4
 64 138 42 160 42 188 c 4
EndSplineSet
EndChar

StartChar: x
Encoding: 120 120 43
Width: 184
VWidth: 0
Flags: HW
LayerCount: 3
Fore
SplineSet
42 188 m 4
 42 216 64 238 92 238 c 4
 120 238 142 216 142 188 c 4
 142 160 120 138 92 138 c 4
 64 138 42 160 42 188 c 4
EndSplineSet
EndChar

StartChar: y
Encoding: 121 121 44
Width: 184
VWidth: 0
Flags: HW
LayerCount: 3
Fore
SplineSet
42 188 m 4
 42 216 64 238 92 238 c 4
 120 238 142 216 142 188 c 4
 142 160 120 138 92 138 c 4
 64 138 42 160 42 188 c 4
EndSplineSet
EndChar

StartChar: z
Encoding: 122 122 45
Width: 184
VWidth: 0
Flags: HW
LayerCount: 3
Fore
SplineSet
42 188 m 4
 42 216 64 238 92 238 c 4
 120 238 142 216 142 188 c 4
 142 160 120 138 92 138 c 4
 64 138 42 160 42 188 c 4
EndSplineSet
EndChar

StartChar: zero
Encoding: 48 48 57
Width: 184
VWidth: 0
Flags: HW
LayerCount: 3
Fore
SplineSet
42 188 m 4
 42 216 64 238 92 238 c 4
 120 238 142 216 142 188 c 4
 142 160 120 138 92 138 c 4
 64 138 42 160 42 188 c 4
EndSplineSet
EndChar

StartChar: one
Encoding: 49 49 58
Width: 184
VWidth: 0
Flags: HW
LayerCount: 3
Fore
SplineSet
42 188 m 4
 42 216 64 238 92 238 c 4
 120 238 142 216 142 188 c 4
 142 160 120 138 92 138 c 4
 64 138 42 160 42 188 c 4
EndSplineSet
EndChar

StartChar: two
Encoding: 50 50 59
Width: 184
VWidth: 0
Flags: HW
LayerCount: 3
Fore
SplineSet
42 188 m 4
 42 216 64 238 92 238 c 4
 120 238 142 216 142 188 c 4
 142 160 120 138 92 138 c 4
 64 138 42 160 42 188 c 4
EndSplineSet
EndChar

StartChar: three
Encoding: 51 51 60
Width: 184
VWidth: 0
Flags: HW
LayerCount: 3
Fore
SplineSet
42 188 m 4
 42 216 64 238 92 238 c 4
 120 238 142 216 142 188 c 4
 142 160 120 138 92 138 c 4
 64 138 42 160 42 188 c 4
EndSplineSet
EndChar

StartChar: four
Encoding: 52 52 61
Width: 184
VWidth: 0
Flags: HW
LayerCount: 3
Fore
SplineSet
42 188 m 4
 42 216 64 238 92 238 c 4
 120 238 142 216 142 188 c 4
 142 160 120 138 92 138 c 4
 64 138 42 160 42 188 c 4
EndSplineSet
EndChar

StartChar: five
Encoding: 53 53 62
Width: 184
VWidth: 0
Flags: HW
LayerCount: 3
Fore
SplineSet
42 188 m 4
 42 216 64 238 92 238 c 4
 120 238 142 216 142 188 c 4
 142 160 120 138 92 138 c 4
 64 138 42 160 42 188 c 4
EndSplineSet
EndChar

StartChar: six
Encoding: 54 54 63
Width: 184
VWidth: 0
Flags: HW
LayerCount: 3
Fore
SplineSet
42 188 m 4
 42 216 64 238 92 238 c 4
 120 238 142 216 142 188 c 4
 142 160 120 138 92 138 c 4
 64 138 42 160 42 188 c 4
EndSplineSet
EndChar

StartChar: seven
Encoding: 55 55 64
Width: 184
VWidth: 0
Flags: HW
LayerCount: 3
Fore
SplineSet
42 188 m 4
 42 216 64 238 92 238 c 4
 120 238 142 216 142 188 c 4
 142 160 120 138 92 138 c 4
 64 138 42 160 42 188 c 4
EndSplineSet
EndChar

StartChar: eight
Encoding: 56 56 65
Width: 184
VWidth: 0
Flags: HW
LayerCount: 3
Fore
SplineSet
42 188 m 4
 42 216 64 238 92 238 c 4
 120 238 142 216 142 188 c 4
 142 160 120 138 92 138 c 4
 64 138 42 160 42 188 c 4
EndSplineSet
EndChar

StartChar: nine
Encoding: 57 57 66
Width: 184
VWidth: 0
Flags: HW
LayerCount: 3
Fore
SplineSet
42 188 m 4
 42 216 64 238 92 238 c 4
 120 238 142 216 142 188 c 4
 142 160 120 138 92 138 c 4
 64 138 42 160 42 188 c 4
EndSplineSet
EndChar

StartChar: .notdef
Encoding: 65540 -1 67
Width: 500
Flags: W
HStem: 0 50<100 400 100 450> 483 50<100 400 100 100>
VStem: 50 50<50 50 50 483> 400 50<50 483 483 483>
LayerCount: 3
Fore
SplineSet
50 0 m 1
 50 533 l 1
 450 533 l 1
 450 0 l 1
 50 0 l 1
100 50 m 1
 400 50 l 1
 400 483 l 1
 100 483 l 1
 100 50 l 1
EndSplineSet
EndChar
